<svg width="20" height="20" viewBox="0 0 20 20" fill="none" xmlns="http://www.w3.org/2000/svg">
<path d="M17.5 10.6583C17.3689 12.0768 16.8365 13.4287 15.9652 14.5557C15.0939 15.6826 13.9196 16.5382 12.5797 17.0221C11.2399 17.5061 9.78998 17.5984 8.39958 17.2884C7.00918 16.9784 5.73582 16.2788 4.72852 15.2715C3.72121 14.2642 3.02161 12.9908 2.71158 11.6004C2.40156 10.21 2.49392 8.76007 2.97788 7.42025C3.46183 6.08042 4.31735 4.90614 5.44434 4.03479C6.57132 3.16345 7.92316 2.63109 9.34166 2.5C8.51117 3.62356 8.11153 5.00787 8.21544 6.40118C8.31934 7.79448 8.91988 9.10422 9.90783 10.0922C10.8958 11.0801 12.2055 11.6807 13.5988 11.7846C14.9921 11.8885 16.3764 11.4888 17.5 10.6583V10.6583Z" stroke="white" stroke-linecap="round" stroke-linejoin="round"/>
</svg>
